<svg xmlns="http://www.w3.org/2000/svg" version="1.1" xmlns:xlink="http://www.w3.org/1999/xlink" xmlns:svgjs="http://svgjs.dev/svgjs" width="2000" height="1999" viewBox="0 0 2000 1999"><g transform="matrix(1,0,0,1,-0.431486880466764,-0.4312711370263287)"><svg viewBox="0 0 343 343" data-background-color="#ede1d1" preserveAspectRatio="xMidYMid meet" height="1999" width="2000" xmlns="http://www.w3.org/2000/svg" xmlns:xlink="http://www.w3.org/1999/xlink"><g id="tight-bounds" transform="matrix(1,0,0,1,0.0740000000000407,0.07400000000001228)"><svg viewBox="0 0 342.85155851775386 342.85155851775386" height="342.85155851775386" width="342.85155851775386"><g><svg></svg></g><g><svg viewBox="0 0 342.85155851775386 342.85155851775386" height="342.85155851775386" width="342.85155851775386"><g><path d="M0 171.426c0-94.676 76.75-171.426 171.426-171.426 94.676 0 171.426 76.75 171.426 171.426 0 94.676-76.75 171.426-171.426 171.426-94.676 0-171.426-76.75-171.426-171.426zM171.426 336.941c91.411 0 165.515-74.104 165.515-165.515 0-91.411-74.104-165.515-165.515-165.515-91.411 0-165.515 74.104-165.515 165.515 0 91.411 74.104 165.515 165.515 165.515z" data-fill-palette-color="tertiary" fill="#6a704c" stroke="transparent"></path><ellipse rx="164.56874808852186" ry="164.56874808852186" cx="171.42577925887693" cy="171.42577925887693" fill="#6a704c" stroke="transparent" stroke-width="0" fill-opacity="1" data-fill-palette-color="tertiary"></ellipse></g><g transform="matrix(1,0,0,1,64.84655864529837,85.6268916086117)"><svg viewBox="0 0 213.1584412271571 171.59777530053046" height="171.59777530053046" width="213.1584412271571"><g><svg viewBox="0 0 213.1584412271571 171.59777530053046" height="171.59777530053046" width="213.1584412271571"><g><svg viewBox="0 0 213.1584412271571 171.59777530053046" height="171.59777530053046" width="213.1584412271571"><g transform="matrix(1,0,0,1,0,106.0543092970491)"><svg viewBox="0 0 213.1584412271571 65.54346600348136" height="65.54346600348136" width="213.1584412271571"><g id="textblocktransform"><svg viewBox="0 0 213.1584412271571 65.54346600348136" height="65.54346600348136" width="213.1584412271571" id="textblock"><g><svg viewBox="0 0 213.1584412271571 65.54346600348136" height="65.54346600348136" width="213.1584412271571"><g transform="matrix(1,0,0,1,0,0)"><svg width="213.1584412271571" viewBox="3 -35.01 146.4 45.019999999999996" height="65.54346600348136" data-palette-color="#ede1d1"><path d="M19.7-6.86L19.7-6.86Q19.7-5.35 19.13-4 18.55-2.66 17.55-1.66 16.55-0.66 15.21-0.09 13.87 0.49 12.35 0.49L12.35 0.49 10.35 0.49Q8.84 0.49 7.5-0.09 6.15-0.66 5.15-1.66 4.15-2.66 3.58-4 3-5.35 3-6.86L3-6.86 3-18.14Q3-19.65 3.58-21 4.15-22.34 5.15-23.34 6.15-24.34 7.5-24.91 8.84-25.49 10.35-25.49L10.35-25.49 12.35-25.49Q13.87-25.49 15.21-24.91 16.55-24.34 17.55-23.34 18.55-22.34 19.13-21 19.7-19.65 19.7-18.14L19.7-18.14 19.7-17.14 16.7-16.65 16.7-18.31Q16.7-19.21 16.36-20.01 16.02-20.8 15.43-21.39 14.84-21.97 14.05-22.31 13.26-22.66 12.35-22.66L12.35-22.66 10.35-22.66Q9.45-22.66 8.65-22.31 7.86-21.97 7.28-21.39 6.69-20.8 6.35-20.01 6.01-19.21 6.01-18.31L6.01-18.31 6.01-6.69Q6.01-5.79 6.35-4.99 6.69-4.2 7.28-3.61 7.86-3.03 8.65-2.69 9.45-2.34 10.35-2.34L10.35-2.34 12.35-2.34Q13.26-2.34 14.05-2.69 14.84-3.03 15.43-3.61 16.02-4.2 16.36-4.99 16.7-5.79 16.7-6.69L16.7-6.69 16.7-8.35 19.7-7.86 19.7-6.86ZM29.22 0L26.22 0 26.22-35.01 29.22-35.01 29.22 0ZM52.44-6.86L52.44-6.86Q52.44-5.35 51.86-4 51.29-2.66 50.29-1.66 49.29-0.66 47.94-0.09 46.6 0.49 45.09 0.49L45.09 0.49 43.09 0.49Q41.57 0.49 40.23-0.09 38.89-0.66 37.89-1.66 36.88-2.66 36.31-4 35.74-5.35 35.74-6.86L35.74-6.86 35.74-18.14Q35.74-19.65 36.31-21 36.88-22.34 37.89-23.34 38.89-24.34 40.23-24.91 41.57-25.49 43.09-25.49L43.09-25.49 45.09-25.49Q46.6-25.49 47.94-24.91 49.29-24.34 50.29-23.34 51.29-22.34 51.86-21 52.44-19.65 52.44-18.14L52.44-18.14 52.44-6.86ZM49.43-6.69L49.43-18.31Q49.43-19.21 49.09-20.01 48.75-20.8 48.16-21.39 47.58-21.97 46.78-22.31 45.99-22.66 45.09-22.66L45.09-22.66 43.09-22.66Q42.18-22.66 41.39-22.31 40.6-21.97 40.01-21.39 39.42-20.8 39.08-20.01 38.74-19.21 38.74-18.31L38.74-18.31 38.74-6.69Q38.74-5.79 39.08-4.99 39.42-4.2 40.01-3.61 40.6-3.03 41.39-2.69 42.18-2.34 43.09-2.34L43.09-2.34 45.09-2.34Q45.99-2.34 46.78-2.69 47.58-3.03 48.16-3.61 48.75-4.2 49.09-4.99 49.43-5.79 49.43-6.69L49.43-6.69ZM70.28 0L67.55 0Q66.18 0 64.97-0.51 63.76-1.03 62.87-1.93 61.98-2.83 61.45-4.03 60.93-5.22 60.93-6.59L60.93-6.59 60.93-22.14 56.44-22.14 56.44-25 60.93-25 60.93-31.01 63.93-31.49 63.93-25 70.28-25 70.28-22.14 63.93-22.14 63.93-6.45Q63.93-5.69 64.21-5.04 64.49-4.39 64.98-3.91 65.47-3.42 66.13-3.14 66.79-2.86 67.55-2.86L67.55-2.86 70.28-2.86 70.28 0ZM92.49 0L89.49 0 89.49-18.31Q89.49-19.21 89.15-20.01 88.81-20.8 88.22-21.39 87.64-21.97 86.84-22.31 86.05-22.66 85.15-22.66L85.15-22.66 83.14-22.66Q82.24-22.66 81.45-22.31 80.65-21.97 80.07-21.39 79.48-20.8 79.14-20.01 78.8-19.21 78.8-18.31L78.8-18.31 78.8 0 75.8 0 75.8-35.01 78.8-35.01 78.8-22.9Q79.82-24.12 81.26-24.8 82.7-25.49 84.39-25.49L84.39-25.49 85.15-25.49Q86.66-25.49 88-24.91 89.35-24.34 90.35-23.34 91.35-22.34 91.92-21 92.49-19.65 92.49-18.14L92.49-18.14 92.49 0ZM102.75-31.01L99.26-31.01 99.26-35.01 102.75-35.01 102.75-31.01ZM102.5 0L99.5 0 99.5-25 102.5-25 102.5 0ZM126.21 0L123.2 0 123.2-18.31Q123.2-19.21 122.86-20.01 122.52-20.8 121.93-21.39 121.35-21.97 120.55-22.31 119.76-22.66 118.86-22.66L118.86-22.66 116.86-22.66Q115.95-22.66 115.16-22.31 114.36-21.97 113.78-21.39 113.19-20.8 112.85-20.01 112.51-19.21 112.51-18.31L112.51-18.31 112.51 0 109.51 0 109.51-25 110.51-25 112.14-22.46Q113.17-23.85 114.72-24.67 116.27-25.49 118.1-25.49L118.1-25.49 118.86-25.49Q120.37-25.49 121.71-24.91 123.06-24.34 124.06-23.34 125.06-22.34 125.63-21 126.21-19.65 126.21-18.14L126.21-18.14 126.21 0ZM149.15 3.15L149.15 3.15Q149.15 4.66 148.58 5.93 148 7.2 147 8.11 146 9.01 144.66 9.51 143.32 10.01 141.8 10.01L141.8 10.01 140.56 10.01Q139.05 10.01 137.7 9.51 136.36 9.01 135.36 8.11 134.36 7.2 133.78 5.93 133.21 4.66 133.21 3.15L133.21 3.15 133.21 3.05Q133.21 1.59 133.75 0.37 134.28-0.85 135.21-1.76L135.21-1.76Q134.04-2.47 133.34-3.67 132.65-4.88 132.65-6.35L132.65-6.35Q132.65-7.67 133.21-8.8 133.77-9.94 134.75-10.64L134.75-10.64Q133.58-11.67 132.89-13.11 132.21-14.55 132.21-16.26L132.21-16.26 132.21-18.14Q132.21-19.65 132.78-21 133.36-22.34 134.36-23.34 135.36-24.34 136.7-24.91 138.04-25.49 139.56-25.49L139.56-25.49 140.8-25.49Q142.63-25.49 144.18-24.67 145.73-23.85 146.76-22.46L146.76-22.46 148.4-25 149.4-25 149.4-16.26Q149.4-14.75 148.82-13.4 148.25-12.06 147.25-11.06 146.25-10.06 144.9-9.48 143.56-8.91 142.05-8.91L142.05-8.91 137.7-8.91Q137.19-8.91 136.73-8.7 136.26-8.5 135.91-8.15 135.55-7.81 135.36-7.34 135.16-6.86 135.16-6.35L135.16-6.35Q135.16-5.83 135.36-5.37 135.55-4.91 135.91-4.55 136.26-4.2 136.73-4 137.19-3.81 137.7-3.81L137.7-3.81 141.8-3.81Q143.32-3.81 144.66-3.31 146-2.81 147-1.9 148-1 148.58 0.27 149.15 1.54 149.15 3.05L149.15 3.05 149.15 3.15ZM146.42-16.09L146.42-18.31Q146.42-19.21 146.08-20.01 145.73-20.8 145.14-21.39 144.54-21.97 143.74-22.31 142.95-22.66 142.05-22.66L142.05-22.66 139.56-22.66Q138.65-22.66 137.86-22.31 137.07-21.97 136.48-21.39 135.9-20.8 135.55-20.01 135.21-19.21 135.21-18.31L135.21-18.31 135.21-16.09Q135.21-15.19 135.55-14.39 135.9-13.6 136.48-13.01 137.07-12.43 137.86-12.08 138.65-11.74 139.56-11.74L139.56-11.74 142.05-11.74Q142.95-11.74 143.74-12.08 144.54-12.43 145.14-13.01 145.73-13.6 146.08-14.39 146.42-15.19 146.42-16.09L146.42-16.09ZM146.3 3.3L146.3 2.91Q146.3 2 145.95 1.28 145.61 0.56 145.03 0.07 144.44-0.42 143.65-0.68 142.85-0.95 141.95-0.95L141.95-0.95 140.41-0.95Q139.51-0.95 138.72-0.68 137.92-0.42 137.34 0.07 136.75 0.56 136.41 1.28 136.07 2 136.07 2.91L136.07 2.91 136.07 3.3Q136.07 4.2 136.41 4.91 136.75 5.62 137.34 6.12 137.92 6.62 138.72 6.88 139.51 7.15 140.41 7.15L140.41 7.15 141.95 7.15Q142.85 7.15 143.65 6.88 144.44 6.62 145.03 6.12 145.61 5.62 145.95 4.91 146.3 4.2 146.3 3.3L146.3 3.3Z" opacity="1" transform="matrix(1,0,0,1,0,0)" fill="#ede1d1" class="wordmark-text-0" data-fill-palette-color="quaternary" id="text-0"></path></svg></g></svg></g></svg></g></svg></g><g transform="matrix(1,0,0,1,60.67855404547421,0)"><svg viewBox="0 0 91.8013331362087 90.58107001681124" height="90.58107001681124" width="91.8013331362087"><g><svg xmlns="http://www.w3.org/2000/svg" xmlns:xlink="http://www.w3.org/1999/xlink" version="1.1" x="0" y="0" viewBox="1.1 1.8 97.8 96.5" style="enable-background:new 0 0 100 100;" xml:space="preserve" height="90.58107001681124" width="91.8013331362087" class="icon-icon-0" data-fill-palette-color="quaternary" id="icon-0"><path d="M75.4 27.4L57.3 24.9C57 24.9 56.8 25 56.6 25.2 54.6 27.8 51.8 29.6 48.5 30 45.2 30.5 42 29.7 39.4 27.7 39.2 27.5 38.9 27.5 38.7 27.6L21.9 35.2C21.5 35.4 21.4 35.8 21.5 36.1L25.9 47.5C26 47.9 26.5 48.1 26.8 47.9L34.3 45 39 74.5C39.1 74.9 39.4 75.2 39.8 75.1L69.6 70.7C70 70.6 70.3 70.3 70.2 69.9L66.1 40.5 74.2 41.1C74.6 41.1 75 40.8 75 40.4L76 28.2C76.1 27.8 75.8 27.4 75.4 27.4M54.8 43.5L53.9 37.4 61.2 36.3 62.1 42.4C62 42.4 59.7 47.6 54.8 43.5" fill="#ede1d1" data-fill-palette-color="quaternary"></path><rect x="47.4" y="1.8" width="5.1" height="5.1" fill="#ede1d1" data-fill-palette-color="quaternary"></rect><rect x="47.4" y="93.2" width="5.1" height="5.1" fill="#ede1d1" data-fill-palette-color="quaternary"></rect><rect x="13.9" y="78.6" width="5.1" height="5.1" fill="#ede1d1" data-fill-palette-color="quaternary"></rect><rect x="79.5" y="78.6" width="5.1" height="5.1" fill="#ede1d1" data-fill-palette-color="quaternary"></rect><rect x="13.9" y="15.8" width="5.1" height="5.1" fill="#ede1d1" data-fill-palette-color="quaternary"></rect><rect x="79.5" y="15.8" width="5.1" height="5.1" fill="#ede1d1" data-fill-palette-color="quaternary"></rect><rect x="1.1" y="47.1" width="5.1" height="5.1" fill="#ede1d1" data-fill-palette-color="quaternary"></rect><rect x="93.8" y="47.1" width="5.1" height="5.1" fill="#ede1d1" data-fill-palette-color="quaternary"></rect><path d="M10.4 24.4C6.6 30.2 4.2 36.6 3.3 43.5L3.2 44.1H6.2L6.3 43.6C7.3 36.9 9.8 30.5 13.6 24.9L14.2 24.1H10.7z" fill="#ede1d1" data-fill-palette-color="quaternary"></path><path d="M6.1 55.7L6 55.2H3.1L3.2 55.8C4.1 62.9 6.4 69.4 10.2 75.4L10.4 75.6H13.9L13.3 74.8C9.5 69.1 7 62.5 6.1 55.7" fill="#ede1d1" data-fill-palette-color="quaternary"></path><path d="M93.7 43.7L93.8 44.2H96.8L96.7 43.6C95.7 36.7 93.3 30.3 89.6 24.5L89.4 24.3H85.9L86.5 25.1C90.2 30.6 92.7 37 93.7 43.7" fill="#ede1d1" data-fill-palette-color="quaternary"></path><path d="M93.9 55.2L93.8 55.7C92.9 62.5 90.4 69.2 86.6 74.8L86 75.6H89.5L89.7 75.4C93.5 69.5 95.9 62.9 96.7 55.8L96.8 55.2z" fill="#ede1d1" data-fill-palette-color="quaternary"></path><path d="M74.1 13.1L74.2 13.2H79.2L77.9 12.2C71.6 7.4 64 4.3 56.1 3.3L55.5 3.2V6.2L56 6.3C62.5 7.2 68.6 9.4 74.1 13.1" fill="#ede1d1" data-fill-palette-color="quaternary"></path><path d="M21.9 12.2L20.6 13.2H25.6L25.7 13.1C31.3 9.4 37.4 7.2 44 6.3L44.5 6.2V3.2L43.9 3.3C35.9 4.3 28.3 7.4 21.9 12.2" fill="#ede1d1" data-fill-palette-color="quaternary"></path><path d="M74.6 86.8C69 90.5 62.6 93 55.9 93.9L55.4 94V97L56 96.9C64.1 95.8 71.8 92.7 78.3 87.7L79.6 86.7z" fill="#ede1d1" data-fill-palette-color="quaternary"></path><path d="M25.3 86.8L25.1 86.7H20.2L21.5 87.7C28 92.7 35.8 95.8 43.9 96.9L44.5 97V94L44 93.9C37.3 93 30.8 90.5 25.3 86.8" fill="#ede1d1" data-fill-palette-color="quaternary"></path></svg></g></svg></g><g></g></svg></g></svg></g></svg></g></svg></g><defs></defs></svg><rect width="342.85155851775386" height="342.85155851775386" fill="none" stroke="none" visibility="hidden"></rect></g></svg></g></svg>