<svg xmlns="http://www.w3.org/2000/svg" version="1.1" xmlns:xlink="http://www.w3.org/1999/xlink" xmlns:svgjs="http://svgjs.dev/svgjs" width="2000" height="2000" viewBox="0 0 2000 2000"><g transform="matrix(1,0,0,1,-0.28443113772425477,-0.28443113772459583)"><svg viewBox="0 0 334 334" data-background-color="#ede1d1" preserveAspectRatio="xMidYMid meet" height="2000" width="2000" xmlns="http://www.w3.org/2000/svg" xmlns:xlink="http://www.w3.org/1999/xlink"><g id="tight-bounds" transform="matrix(1,0,0,1,0.04749999999998522,0.04750000000001364)"><svg viewBox="0 0 333.90454557049503 333.90454557049503" height="333.90454557049503" width="333.90454557049503"><g><svg></svg></g><g><svg viewBox="0 0 333.90454557049503 333.90454557049503" height="333.90454557049503" width="333.90454557049503"><g><path d="M0 166.952c0-92.205 74.747-166.952 166.952-166.952 92.205 0 166.952 74.747 166.953 166.952 0 92.205-74.747 166.952-166.953 166.953-92.205 0-166.952-74.747-166.952-166.953zM166.952 329.265c89.643 0 162.313-72.67 162.313-162.313 0-89.643-72.67-162.313-162.313-162.313-89.643 0-162.313 72.67-162.313 162.313 0 89.643 72.67 162.313 162.313 162.313z" data-fill-palette-color="tertiary" fill="#6a704c" stroke="transparent"></path><ellipse rx="160.27418187383762" ry="160.27418187383762" cx="166.95227278524752" cy="166.95227278524752" fill="#6a704c" stroke="transparent" stroke-width="0" fill-opacity="1" data-fill-palette-color="tertiary"></ellipse></g><g transform="matrix(1,0,0,1,63.78954957967527,71.17305217166896)"><svg viewBox="0 0 206.3254464111445 191.55844122715712" height="191.55844122715712" width="206.3254464111445"><g><svg viewBox="0 0 206.3254464111445 191.55844122715712" height="191.55844122715712" width="206.3254464111445"><g><svg viewBox="0 0 213.1584412271571 197.90238890126196" height="191.55844122715712" width="206.3254464111445"><g transform="matrix(1,0,0,1,0,144.7553404197985)"><svg viewBox="0 0 213.1584412271571 53.147048481463464" height="53.147048481463464" width="213.1584412271571"><g id="textblocktransform"><svg viewBox="0 0 213.1584412271571 53.147048481463464" height="53.147048481463464" width="213.1584412271571" id="textblock"><g><svg viewBox="0 0 213.1584412271571 53.147048481463464" height="53.147048481463464" width="213.1584412271571"><g transform="matrix(1,0,0,1,0,0)"><svg width="213.1584412271571" viewBox="1 -35.5 182.5 45.51" height="53.147048481463464" data-palette-color="#ede1d1"><path d="M22.19-35.01L13.21-16.75 13.21 0 10.06 0 10.06-16.7 1-35.01 4.39-35.01 11.6-20.46 18.8-35.01 22.19-35.01ZM40.89-6.86L40.89-6.86Q40.89-5.35 40.32-4 39.74-2.66 38.74-1.66 37.74-0.66 36.4-0.09 35.06 0.49 33.54 0.49L33.54 0.49 31.54 0.49Q30.03 0.49 28.68-0.09 27.34-0.66 26.34-1.66 25.34-2.66 24.77-4 24.19-5.35 24.19-6.86L24.19-6.86 24.19-18.14Q24.19-19.65 24.77-21 25.34-22.34 26.34-23.34 27.34-24.34 28.68-24.91 30.03-25.49 31.54-25.49L31.54-25.49 33.54-25.49Q35.06-25.49 36.4-24.91 37.74-24.34 38.74-23.34 39.74-22.34 40.32-21 40.89-19.65 40.89-18.14L40.89-18.14 40.89-6.86ZM37.89-6.69L37.89-18.31Q37.89-19.21 37.55-20.01 37.2-20.8 36.62-21.39 36.03-21.97 35.24-22.31 34.45-22.66 33.54-22.66L33.54-22.66 31.54-22.66Q30.64-22.66 29.84-22.31 29.05-21.97 28.46-21.39 27.88-20.8 27.54-20.01 27.19-19.21 27.19-18.31L27.19-18.31 27.19-6.69Q27.19-5.79 27.54-4.99 27.88-4.2 28.46-3.61 29.05-3.03 29.84-2.69 30.64-2.34 31.54-2.34L31.54-2.34 33.54-2.34Q34.45-2.34 35.24-2.69 36.03-3.03 36.62-3.61 37.2-4.2 37.55-4.99 37.89-5.79 37.89-6.69L37.89-6.69ZM63.59 0L62.59 0 60.93-2.54Q59.91-1.15 58.37-0.33 56.83 0.49 55 0.49L55 0.49 54.24 0.49Q52.73 0.49 51.39-0.09 50.04-0.66 49.04-1.66 48.04-2.66 47.47-4 46.89-5.35 46.89-6.86L46.89-6.86 46.89-25 49.9-25 49.9-6.69Q49.9-5.79 50.24-4.99 50.58-4.2 51.17-3.61 51.75-3.03 52.55-2.69 53.34-2.34 54.24-2.34L54.24-2.34 56.25-2.34Q57.15-2.34 57.94-2.69 58.74-3.03 59.32-3.61 59.91-4.2 60.25-4.99 60.59-5.79 60.59-6.69L60.59-6.69 60.59-25 63.59-25 63.59 0ZM79.95-22.14L76.95-22.14Q76.04-22.14 75.25-21.8 74.46-21.46 73.87-20.87 73.28-20.29 72.94-19.49 72.6-18.7 72.6-17.8L72.6-17.8 72.6 0 69.6 0 69.6-25 70.6-25 72.23-22.46Q73.26-23.85 74.81-24.67 76.36-25.49 78.19-25.49L78.19-25.49 79.95-25.49 79.95-22.14ZM115.64-9.16L115.64-8.11Q115.64-6.32 114.92-4.76 114.2-3.2 112.99-2.03 111.78-0.85 110.18-0.18 108.58 0.49 106.8 0.49L106.8 0.49 104.28 0.49Q102.5 0.49 100.9-0.18 99.3-0.85 98.1-2.03 96.89-3.2 96.17-4.76 95.45-6.32 95.45-8.11L95.45-8.11 95.45-9.5 98.6-10.01 98.6-8.11Q98.6-6.93 99.07-5.92 99.55-4.91 100.35-4.14 101.16-3.37 102.22-2.93 103.28-2.49 104.46-2.49L104.46-2.49 106.65-2.49Q107.82-2.49 108.87-2.93 109.92-3.37 110.73-4.14 111.54-4.91 112.01-5.92 112.49-6.93 112.49-8.11L112.49-8.11 112.49-9.16Q112.49-10.96 111.78-12.16 111.07-13.35 109.9-14.2 108.73-15.04 107.25-15.63 105.77-16.21 104.21-16.8 102.65-17.38 101.17-18.09 99.69-18.8 98.52-19.86 97.35-20.92 96.64-22.46 95.93-24 95.93-26.25L95.93-26.25 95.93-26.9Q95.93-28.69 96.61-30.25 97.28-31.81 98.45-32.98 99.62-34.16 101.2-34.83 102.77-35.5 104.55-35.5L104.55-35.5 106.8-35.5Q108.58-35.5 110.14-34.83 111.71-34.16 112.88-32.98 114.05-31.81 114.72-30.25 115.39-28.69 115.39-26.9L115.39-26.9 115.39-26 112.24-25.49 112.24-26.9Q112.24-28.08 111.8-29.09 111.36-30.1 110.61-30.86 109.85-31.62 108.84-32.06 107.82-32.5 106.65-32.5L106.65-32.5 104.7-32.5Q103.53-32.5 102.51-32.06 101.5-31.62 100.73-30.86 99.96-30.1 99.52-29.09 99.08-28.08 99.08-26.9L99.08-26.9 99.08-26.25Q99.08-24.56 99.79-23.41 100.5-22.27 101.67-21.45 102.84-20.63 104.32-20.03 105.8-19.43 107.36-18.81 108.92-18.19 110.4-17.44 111.88-16.7 113.05-15.61 114.22-14.53 114.93-12.96 115.64-11.4 115.64-9.16L115.64-9.16ZM138.1 0L135.09 0 135.09-18.31Q135.09-19.21 134.75-20.01 134.41-20.8 133.82-21.39 133.24-21.97 132.44-22.31 131.65-22.66 130.75-22.66L130.75-22.66 128.74-22.66Q127.84-22.66 127.05-22.31 126.25-21.97 125.67-21.39 125.08-20.8 124.74-20.01 124.4-19.21 124.4-18.31L124.4-18.31 124.4 0 121.4 0 121.4-35.01 124.4-35.01 124.4-22.9Q125.42-24.12 126.86-24.8 128.31-25.49 129.99-25.49L129.99-25.49 130.75-25.49Q132.26-25.49 133.6-24.91 134.95-24.34 135.95-23.34 136.95-22.34 137.52-21 138.1-19.65 138.1-18.14L138.1-18.14 138.1 0ZM160.8-6.86L160.8-6.86Q160.8-5.35 160.22-4 159.65-2.66 158.65-1.66 157.65-0.66 156.31-0.09 154.96 0.49 153.45 0.49L153.45 0.49 151.45 0.49Q149.93 0.49 148.59-0.09 147.25-0.66 146.25-1.66 145.25-2.66 144.67-4 144.1-5.35 144.1-6.86L144.1-6.86 144.1-18.14Q144.1-19.65 144.67-21 145.25-22.34 146.25-23.34 147.25-24.34 148.59-24.91 149.93-25.49 151.45-25.49L151.45-25.49 153.45-25.49Q154.96-25.49 156.31-24.91 157.65-24.34 158.65-23.34 159.65-22.34 160.22-21 160.8-19.65 160.8-18.14L160.8-18.14 160.8-6.86ZM157.8-6.69L157.8-18.31Q157.8-19.21 157.45-20.01 157.11-20.8 156.53-21.39 155.94-21.97 155.15-22.31 154.35-22.66 153.45-22.66L153.45-22.66 151.45-22.66Q150.54-22.66 149.75-22.31 148.96-21.97 148.37-21.39 147.79-20.8 147.44-20.01 147.1-19.21 147.1-18.31L147.1-18.31 147.1-6.69Q147.1-5.79 147.44-4.99 147.79-4.2 148.37-3.61 148.96-3.03 149.75-2.69 150.54-2.34 151.45-2.34L151.45-2.34 153.45-2.34Q154.35-2.34 155.15-2.69 155.94-3.03 156.53-3.61 157.11-4.2 157.45-4.99 157.8-5.79 157.8-6.69L157.8-6.69ZM183.5-6.86L183.5-6.86Q183.5-5.35 182.93-4 182.35-2.66 181.35-1.66 180.35-0.66 179.01-0.09 177.67 0.49 176.15 0.49L176.15 0.49 175.4 0.49Q173.71 0.49 172.27-0.2 170.83-0.88 169.8-2.1L169.8-2.1 169.8 10.01 166.8 10.01 166.8-25 167.8-25 169.44-22.46Q170.46-23.85 172.01-24.67 173.56-25.49 175.4-25.49L175.4-25.49 176.15-25.49Q177.67-25.49 179.01-24.91 180.35-24.34 181.35-23.34 182.35-22.34 182.93-21 183.5-19.65 183.5-18.14L183.5-18.14 183.5-6.86ZM180.5-6.69L180.5-18.31Q180.5-19.21 180.16-20.01 179.81-20.8 179.23-21.39 178.64-21.97 177.85-22.31 177.06-22.66 176.15-22.66L176.15-22.66 174.15-22.66Q173.25-22.66 172.45-22.31 171.66-21.97 171.07-21.39 170.49-20.8 170.15-20.01 169.8-19.21 169.8-18.31L169.8-18.31 169.8-6.69Q169.8-5.79 170.15-4.99 170.49-4.2 171.07-3.61 171.66-3.03 172.45-2.69 173.25-2.34 174.15-2.34L174.15-2.34 176.15-2.34Q177.06-2.34 177.85-2.69 178.64-3.03 179.23-3.61 179.81-4.2 180.16-4.99 180.5-5.79 180.5-6.69L180.5-6.69Z" opacity="1" transform="matrix(1,0,0,1,0,0)" fill="#ede1d1" class="wordmark-text-0" data-fill-palette-color="quaternary" id="text-0"></path></svg></g></svg></g></svg></g></svg></g><g transform="matrix(1,0,0,1,39.58439747843153,0)"><svg viewBox="0 0 133.98964627029406 132.20859780248853" height="132.20859780248853" width="133.98964627029406"><g><svg xmlns="http://www.w3.org/2000/svg" xmlns:xlink="http://www.w3.org/1999/xlink" version="1.1" x="0" y="0" viewBox="1.1 1.8 97.8 96.5" style="enable-background:new 0 0 100 100;" xml:space="preserve" height="132.20859780248853" width="133.98964627029406" class="icon-icon-0" data-fill-palette-color="quaternary" id="icon-0"><path d="M75.4 27.4L57.3 24.9C57 24.9 56.8 25 56.6 25.2 54.6 27.8 51.8 29.6 48.5 30 45.2 30.5 42 29.7 39.4 27.7 39.2 27.5 38.9 27.5 38.7 27.6L21.9 35.2C21.5 35.4 21.4 35.8 21.5 36.1L25.9 47.5C26 47.9 26.5 48.1 26.8 47.9L34.3 45 39 74.5C39.1 74.9 39.4 75.2 39.8 75.1L69.6 70.7C70 70.6 70.3 70.3 70.2 69.9L66.1 40.5 74.2 41.1C74.6 41.1 75 40.8 75 40.4L76 28.2C76.1 27.8 75.8 27.4 75.4 27.4M54.8 43.5L53.9 37.4 61.2 36.3 62.1 42.4C62 42.4 59.7 47.6 54.8 43.5" fill="#ede1d1" data-fill-palette-color="quaternary"></path><rect x="47.4" y="1.8" width="5.1" height="5.1" fill="#ede1d1" data-fill-palette-color="quaternary"></rect><rect x="47.4" y="93.2" width="5.1" height="5.1" fill="#ede1d1" data-fill-palette-color="quaternary"></rect><rect x="13.9" y="78.6" width="5.1" height="5.1" fill="#ede1d1" data-fill-palette-color="quaternary"></rect><rect x="79.5" y="78.6" width="5.1" height="5.1" fill="#ede1d1" data-fill-palette-color="quaternary"></rect><rect x="13.9" y="15.8" width="5.1" height="5.1" fill="#ede1d1" data-fill-palette-color="quaternary"></rect><rect x="79.5" y="15.8" width="5.1" height="5.1" fill="#ede1d1" data-fill-palette-color="quaternary"></rect><rect x="1.1" y="47.1" width="5.1" height="5.1" fill="#ede1d1" data-fill-palette-color="quaternary"></rect><rect x="93.8" y="47.1" width="5.1" height="5.1" fill="#ede1d1" data-fill-palette-color="quaternary"></rect><path d="M10.4 24.4C6.6 30.2 4.2 36.6 3.3 43.5L3.2 44.1H6.2L6.3 43.6C7.3 36.9 9.8 30.5 13.6 24.9L14.2 24.1H10.7z" fill="#ede1d1" data-fill-palette-color="quaternary"></path><path d="M6.1 55.7L6 55.2H3.1L3.2 55.8C4.1 62.9 6.4 69.4 10.2 75.4L10.4 75.6H13.9L13.3 74.8C9.5 69.1 7 62.5 6.1 55.7" fill="#ede1d1" data-fill-palette-color="quaternary"></path><path d="M93.7 43.7L93.8 44.2H96.8L96.7 43.6C95.7 36.7 93.3 30.3 89.6 24.5L89.4 24.3H85.9L86.5 25.1C90.2 30.6 92.7 37 93.7 43.7" fill="#ede1d1" data-fill-palette-color="quaternary"></path><path d="M93.9 55.2L93.8 55.7C92.9 62.5 90.4 69.2 86.6 74.8L86 75.6H89.5L89.7 75.4C93.5 69.5 95.9 62.9 96.7 55.8L96.8 55.2z" fill="#ede1d1" data-fill-palette-color="quaternary"></path><path d="M74.1 13.1L74.2 13.2H79.2L77.9 12.2C71.6 7.4 64 4.3 56.1 3.3L55.5 3.2V6.2L56 6.3C62.5 7.2 68.6 9.4 74.1 13.1" fill="#ede1d1" data-fill-palette-color="quaternary"></path><path d="M21.9 12.2L20.6 13.2H25.6L25.7 13.1C31.3 9.4 37.4 7.2 44 6.3L44.5 6.2V3.2L43.9 3.3C35.9 4.3 28.3 7.4 21.9 12.2" fill="#ede1d1" data-fill-palette-color="quaternary"></path><path d="M74.6 86.8C69 90.5 62.6 93 55.9 93.9L55.4 94V97L56 96.9C64.1 95.8 71.8 92.7 78.3 87.7L79.6 86.7z" fill="#ede1d1" data-fill-palette-color="quaternary"></path><path d="M25.3 86.8L25.1 86.7H20.2L21.5 87.7C28 92.7 35.8 95.8 43.9 96.9L44.5 97V94L44 93.9C37.3 93 30.8 90.5 25.3 86.8" fill="#ede1d1" data-fill-palette-color="quaternary"></path></svg></g></svg></g><g></g></svg></g></svg></g></svg></g></svg></g><defs></defs></svg><rect width="333.90454557049503" height="333.90454557049503" fill="none" stroke="none" visibility="hidden"></rect></g></svg></g></svg>